<?xml version="1.0" encoding="UTF-8"?>
<svg version="1.1" xmlns="http://www.w3.org/2000/svg" width="130" height="369">
<path d="M0 0 C42.9 0 85.8 0 130 0 C130 121.77 130 243.54 130 369 C87.1 369 44.2 369 0 369 C0 247.23 0 125.46 0 0 Z " fill="#FEFEFE" transform="translate(0,0)"/>
<path d="M0 0 C0.33 2.64 0.66 5.28 1 8 C2.24136719 7.7834375 3.48273438 7.566875 4.76171875 7.34375 C6.40360867 7.06228316 8.04553785 6.78104518 9.6875 6.5 C10.50412109 6.35691406 11.32074219 6.21382812 12.16210938 6.06640625 C16.14978248 5.38834038 19.93730404 4.80141608 24 5 C24 6.65 24 8.3 24 10 C21.6263603 10.50734284 19.25142575 11.00602386 16.875 11.5 C15.87726563 11.71462891 15.87726563 11.71462891 14.859375 11.93359375 C10.83943578 12.7612283 7.10095101 13.15330658 3 13 C3.12117188 13.68924561 3.24234375 14.37849121 3.3671875 15.08862305 C6.69634407 34.25208053 8.46213496 48.07856863 1.890625 66.55078125 C0.0515921 71.7493 -1.51469942 76.98611834 -2.9375 82.3125 C-3.14850342 83.06998535 -3.35950684 83.8274707 -3.5769043 84.60791016 C-5.27758187 91.08881215 -6.49333137 96.97509992 -2.94921875 103.06640625 C-0.0614816 107.22853428 3.41565761 110.58343743 7.1875 113.9375 C7.81591797 114.51306641 8.44433594 115.08863281 9.09179688 115.68164062 C12.30838742 118.67834953 12.30838742 118.67834953 16 121 C14.77247121 108.93713584 14.77247121 108.93713584 12.375 97.0625 C11.00764331 91.60681551 10.65849138 86.60327106 11 81 C15.4896784 81.5131061 17.80563679 82.80563679 21 86 C25.67587363 92.29488073 27.51449049 97.26063602 28 105 C28.05027344 105.79946045 28.10054687 106.5989209 28.15234375 107.42260742 C28.27376965 109.86605887 28.33208781 112.30400499 28.375 114.75 C28.43107422 115.98556641 28.43107422 115.98556641 28.48828125 117.24609375 C28.55180848 121.62947253 28.44880443 123.41950591 25.68359375 126.99609375 C20.29722792 131.01822719 14.5052697 131.62954223 8 131 C-2.22483604 124.227706 -11.15174559 109.47909336 -15 98 C-16.41463952 89.98104904 -13.03728083 83.38609588 -10 76.125 C-5.47105124 64.62028569 -3.49868196 55.24834853 -5 43 C-5.11891602 41.980271 -5.11891602 41.980271 -5.24023438 40.93994141 C-5.62406579 37.77333227 -6.06811761 34.62117467 -6.5546875 31.46875 C-7.21776348 26.30373714 -7.17418229 21.19643844 -7 16 C-9.08429193 16.78913943 -11.16739869 17.58140963 -13.25 18.375 C-14.41015625 18.81585938 -15.5703125 19.25671875 -16.765625 19.7109375 C-19.87542088 20.8873419 -19.87542088 20.8873419 -22.234375 22.1640625 C-24 23 -24 23 -27 23 C-26.49089094 18.54529573 -25.30271237 16.06105049 -22 13 C-17.74988314 11.25118142 -13.60920518 10 -9 10 C-9 7.03 -9 4.06 -9 1 C-4.82091936 -1.08954032 -4.19589427 -1.16552619 0 0 Z " fill="#BA332B" transform="translate(75,208)"/>
<path d="M0 0 C1.25490234 -0.020625 2.50980469 -0.04125 3.80273438 -0.0625 C10.68765543 -0.09150441 16.10995222 0.15246709 22.3125 3.25 C24.4375 5.375 24.4375 5.375 26.3125 8.25 C26.76109375 8.90097656 27.2096875 9.55195312 27.671875 10.22265625 C28.71200151 11.74263493 29.72649983 13.28037473 30.71875 14.83203125 C32.26150055 17.25550901 32.26150055 17.25550901 34.03125 19.38671875 C39.55383544 26.85002408 39.60506044 35.01282191 38.67480469 43.95361328 C36.53622767 57.50850239 25.61377074 67.06040105 16.3125 76.25 C15.31199959 77.24949934 14.31183884 78.24933928 13.3125 79.25 C12.6525 78.92 11.9925 78.59 11.3125 78.25 C11.88097656 77.13367188 12.44945313 76.01734375 13.03515625 74.8671875 C17.45828381 65.98440938 21.33771981 57.0588335 24.4375 47.625 C24.74437744 46.7263623 25.05125488 45.82772461 25.36743164 44.90185547 C27.59949409 37.81533693 28.02323653 32.00136715 24.89453125 25.140625 C20.0092148 17.85039559 16.13930585 12.54069356 7.3125 10.25 C4.26410967 10.06877109 1.23821924 10.15046593 -1.8125 10.25 C-11.47306884 10.5621347 -11.47306884 10.5621347 -14.6875 8.25 C-16.5 6.3125 -16.5 6.3125 -17.6875 4.25 C-17.3575 3.26 -17.0275 2.27 -16.6875 1.25 C-11.33514473 -0.53411842 -5.60125097 0.02266566 0 0 Z " fill="#BA332B" transform="translate(69.6875,37.75)"/>
<path d="M0 0 C-0.44613854 4.34241509 -2.95033433 5.94265219 -6.1875 8.625 C-14.66734157 16.01516144 -18.29018114 24.04843575 -21.83203125 34.59375 C-22.87388316 37.63219437 -24.04638527 40.55017481 -25.3125 43.5 C-26.79548081 47.25932584 -27.84744288 49.93227416 -27 54 C-22.48538564 63.2542095 -16.62558604 70.01646439 -7 74 C-3.93996044 74.63422908 -1.13702785 74.85061772 2 75 C-2.08702118 77.72468079 -5.20394942 77.60927027 -10 77 C-17.55762186 74.76384971 -23.59349674 69.02076658 -27.578125 62.36328125 C-32.10886966 53.44500513 -34.04702546 43.8383165 -31.10546875 34.01171875 C-30.16529415 31.92871707 -29.18529463 29.95256125 -28 28 C-27.01 28 -26.02 28 -25 28 C-24.62713867 27.29391602 -24.25427734 26.58783203 -23.87011719 25.86035156 C-22.17091644 22.65285965 -20.46060136 19.45142525 -18.75 16.25 C-18.16347656 15.13882813 -17.57695312 14.02765625 -16.97265625 12.8828125 C-16.39902344 11.81289063 -15.82539063 10.74296875 -15.234375 9.640625 C-14.44885254 8.16384277 -14.44885254 8.16384277 -13.64746094 6.65722656 C-9.65322442 0.21483323 -7.21179119 -0.48078608 0 0 Z " fill="#BD3C34" transform="translate(46,43)"/>
<path d="M0 0 C3 0.25 3 0.25 5 2.25 C4.69347955 5.1925963 4.32728846 7.59542308 3 10.25 C-2.75 9.5 -2.75 9.5 -5 7.25 C-5.25 4.75 -5.25 4.75 -5 2.25 C-3 0.25 -3 0.25 0 0 Z " fill="#BA352D" transform="translate(57,72.75)"/>
</svg>
